<?xml version="1.0" encoding="utf-8"?>
<!-- Generator: Adobe Illustrator 22.0.1, SVG Export Plug-In . SVG Version: 6.00 Build 0)  -->
<svg version="1.1" xmlns="http://www.w3.org/2000/svg" xmlns:xlink="http://www.w3.org/1999/xlink" x="0px" y="0px"
	 viewBox="0 0 1280 182" style="enable-background:new 0 0 1280 182;" xml:space="preserve">
<style type="text/css">
	.st0{fill:#28233D;stroke:#000000;stroke-miterlimit:10;}
	.st1{fill:none;stroke:#FFFFFF;stroke-width:4;stroke-miterlimit:10;}
	.st2{opacity:0.8;fill:none;stroke:#FFFFFF;stroke-miterlimit:10;}
	.st3{fill:#FFFFFF;}
	.st4{opacity:0.1;fill:none;stroke:#FFFFFF;stroke-miterlimit:10;}
	.st5{fill:#D41343;}
	.st6{opacity:0.5;}
	.st7{opacity:0.39;fill:#FFFFFF;}
	.st8{font-family:'Khand-Regular';}
	.st9{font-size:26px;}
	.st10{letter-spacing:2;}
	.st11{opacity:0.15;}
</style>
<g id="Layer_2">
	<rect class="st0" width="1280" height="185.2"/>
</g>
<g id="Layer_1">
	<g>
		<g>
			<circle class="st1" cx="93.3" cy="92.7" r="61.3"/>
			<polyline class="st2" points="36.1,114.7 49.6,110 49.6,135.6 77,133.7 93.3,154 112.1,133.9 138,134.6 138,107.8 117.3,115.6 
				138,71.9 149.8,68.8 			"/>
			<polyline class="st2" points="51.5,73 69.8,115.6 49.6,110 33.1,91 51.5,73 37.4,67.5 			"/>
			<polygon class="st2" points="51.5,49.1 75.6,49.1 69.8,67.5 51.5,73 			"/>
			<polyline class="st2" points="69.8,36 75.6,49.1 93.3,31.4 112.1,49.1 117.3,36.2 			"/>
			<polyline class="st2" points="112.1,49.1 69.8,67.5 49.6,110 			"/>
			<polyline class="st2" points="118.3,148.6 112.1,133.9 69.8,115.6 77,133.7 68.3,148.6 			"/>
			<polyline class="st2" points="112.1,133.9 117.3,115.6 77,133.7 			"/>
			<polyline class="st2" points="138,71.9 119,67.5 138,107.8 154.6,92.7 138,71.9 136,48.6 112.1,49.1 119,67.5 75.6,49.1 			"/>
			<line class="st2" x1="151" y1="113.4" x2="138" y2="107.8"/>
		</g>
		<g>
			<path class="st3" d="M107.1,99.1h7.5V123c0,2.7-0.1,4.9-0.3,6.5c-0.2,1.7-0.7,3.7-1.4,6l-1.5,5.1h-7.8l1.5-5.1
				c1.4-4.8,2.1-9,2.1-12.5V99.1z"/>
			<path class="st3" d="M117.8,107.1c0-2.6,0.9-4.7,2.7-6.1c1.8-1.4,4.3-2.1,7.7-2.1c3.3,0,5.8,0.3,7.5,1v7.1
				c-2-0.9-4.3-1.3-6.9-1.3c-1.3,0-2.2,0.2-2.7,0.6c-0.5,0.4-0.7,1-0.7,1.8v0.7c0,0.9,0.2,1.6,0.5,2c0.3,0.4,1,0.9,2,1.5l5.6,3.2
				c2.7,1.5,4,3.7,4,6.7v3.1c0,2.7-1,4.7-3,6.1c-2,1.4-4.7,2.1-8.3,2.1s-6.3-0.4-8.1-1.1v-7.2c2.2,1,4.8,1.4,7.6,1.4
				s4.2-0.8,4.2-2.4v-0.7c0-0.8-0.2-1.3-0.5-1.7c-0.3-0.4-0.9-0.8-1.8-1.3l-5.3-2.9c-3.2-1.8-4.8-4.3-4.8-7.5V107.1z"/>
		</g>
	</g>
	<line class="st4" x1="189" y1="31.3" x2="189" y2="154"/>
</g>
<g id="Layer_3">
	<g>
		<path class="st3" d="M220.8,71.9c0-4.8,1.4-8.7,4.3-11.6c2.9-3,7.2-4.4,12.8-4.4c5.6,0,9.9,1.5,12.8,4.4c2.9,3,4.3,6.8,4.3,11.6
			v37.9c0,4.8-1.4,8.6-4.3,11.6c-2.9,2.9-7.2,4.4-12.8,4.4c-5.7,0-9.9-1.5-12.8-4.4c-2.9-2.9-4.3-6.8-4.3-11.6V71.9z M247.9,72
			c0-6.4-3.3-9.6-9.9-9.6c-6.6,0-9.9,3.2-9.9,9.6v37.6c0,6.5,3.3,9.7,9.9,9.7c6.6,0,9.9-3.2,9.9-9.7V72z"/>
		<path class="st3" d="M308.2,113.3l-0.7-22.3v-34h7.2v67.9h-8.3l-13.9-35.1c-0.5-1.4-3.2-8.4-8-21.1l0.6,22.2v34h-7V56.9h8.3
			C297.1,84.1,304.4,102.9,308.2,113.3z"/>
		<path class="st3" d="M338.7,56.9h7.2v67.9h-7.2V56.9z"/>
		<path class="st3" d="M393.4,56.9h7.8l-14.7,33.9l14.7,33.9h-7.8L382.8,99l-10.7,25.8h-7.9L379,90.8l-14.7-33.9h7.8l10.8,25.9
			L393.4,56.9z"/>
		<path class="st3" d="M419.7,56.9h7.2v47.9c0,8.6-1.1,16.8-3.3,24.4l-3.1,10.6H413l3-10.6c2.4-8.6,3.6-16.7,3.6-24.3V56.9z"/>
		<path class="st3" d="M446.8,70.6c0-4.4,1.5-7.9,4.4-10.5c3-2.5,7.1-3.8,12.5-3.8c5.4,0,9.9,0.6,13.6,1.7V65
			c-3.5-1.3-7.8-1.9-12.8-1.9c-6.9,0-10.4,2.6-10.4,7.9v4.8c0,2.4,0.5,4.2,1.4,5.6c0.9,1.3,2.4,2.6,4.6,3.8l11.7,6.6
			c5.5,3,8.2,7.4,8.2,13.4v5.5c0,4.6-1.6,8.2-4.7,10.8c-3.2,2.6-7.7,3.8-13.7,3.8s-10.7-0.7-14.2-2v-6.9c4,1.5,8.5,2.2,13.5,2.2
			c7.9,0,11.9-2.8,11.9-8.4V106c0-2.2-0.4-4-1.2-5.3c-0.8-1.3-2.3-2.5-4.3-3.6l-11.6-6.4c-5.9-3.2-8.8-7.9-8.8-14.1V70.6z"/>
		<path class="st5" d="M500.9,125.4c-2.9,0-4.4-1.5-4.4-4.6c0-3.1,1.5-4.6,4.4-4.6c2.9,0,4.4,1.5,4.4,4.6
			C505.3,123.8,503.8,125.4,500.9,125.4z"/>
		<path class="st5" d="M525.6,56.9h7.2v67.9h-7.2V56.9z"/>
		<path class="st5" d="M555.8,71.9c0-4.8,1.4-8.7,4.3-11.6c2.9-3,7.2-4.4,12.8-4.4s9.9,1.5,12.8,4.4c2.9,3,4.3,6.8,4.3,11.6v37.9
			c0,4.8-1.4,8.6-4.3,11.6c-2.9,2.9-7.2,4.4-12.8,4.4c-5.7,0-9.9-1.5-12.8-4.4c-2.9-2.9-4.3-6.8-4.3-11.6V71.9z M582.8,72
			c0-6.4-3.3-9.6-9.9-9.6c-6.6,0-9.9,3.2-9.9,9.6v37.6c0,6.5,3.3,9.7,9.9,9.7c6.6,0,9.9-3.2,9.9-9.7V72z"/>
	</g>
	<g class="st6">
		<path class="st3" d="M874.9,73.3c0-1.2,0.3-2.2,1-2.9c0.7-0.7,1.8-1.1,3.2-1.1s2.5,0.4,3.2,1.1c0.7,0.7,1,1.7,1,2.9v7.3
			c0,1.2-0.3,2.2-1,2.9c-0.7,0.7-1.8,1.1-3.2,1.1s-2.5-0.4-3.2-1.1c-0.7-0.7-1-1.7-1-2.9V73.3z M881.5,73.3c0-1.6-0.8-2.4-2.4-2.4
			s-2.4,0.8-2.4,2.4v7.2c0,1.6,0.8,2.4,2.4,2.4s2.4-0.8,2.4-2.4V73.3z"/>
		<path class="st3" d="M891.3,70.2c1.2-0.5,2.2-0.8,3.2-0.8s1.8,0.3,2.4,0.9c0.6,0.6,0.9,1.4,0.9,2.5v7.5c0,1.2-0.4,2.2-1.1,2.8
			c-0.7,0.7-1.6,1-2.8,1h-2.6v3.9h-1.8V69.5h1.8V70.2z M895.9,73.1c0-1.3-0.6-1.9-1.9-1.9c-0.8,0-1.7,0.2-2.7,0.7v10.8h2.2
			c1.6,0,2.4-0.8,2.4-2.3V73.1z"/>
		<path class="st3" d="M903.7,80.5v-7.2c0-1.2,0.4-2.2,1.1-3c0.7-0.7,1.8-1.1,3.2-1.1s2.5,0.4,3.2,1.1c0.7,0.7,1,1.7,1,3v4.5h-6.6
			v2.6c0,0.8,0.2,1.4,0.7,1.7c0.5,0.4,1.2,0.6,2.3,0.6s2.1-0.2,3.2-0.5V84c-0.9,0.3-1.9,0.4-3.1,0.4
			C905.3,84.4,903.7,83.1,903.7,80.5z M905.5,76.3h4.8v-3c0-1.6-0.8-2.4-2.4-2.4c-1.6,0-2.4,0.8-2.4,2.4V76.3z"/>
		<path class="st3" d="M919.9,70.2c1.2-0.5,2.2-0.7,3.2-0.7s1.8,0.3,2.4,0.9c0.6,0.6,0.9,1.4,0.9,2.5v11.4h-1.8V73.1
			c0-1.3-0.6-1.9-1.9-1.9c-0.8,0-1.7,0.2-2.7,0.7v12.5h-1.8V69.5h1.8V70.2z"/>
		<path class="st3" d="M932,75.1h4v1.5h-4V75.1z"/>
		<path class="st3" d="M943.3,70.2c1.2-0.5,2.2-0.7,3.2-0.7s1.8,0.3,2.4,0.9c0.6,0.6,0.9,1.4,0.9,2.5v11.4H948V73.1
			c0-1.3-0.6-1.9-1.9-1.9c-0.8,0-1.7,0.2-2.7,0.7v12.5h-1.8V69.5h1.8V70.2z"/>
		<path class="st3" d="M955.9,73.3c0-1.2,0.3-2.2,1-2.9c0.7-0.7,1.8-1.1,3.2-1.1s2.5,0.4,3.2,1.1c0.7,0.7,1,1.7,1,2.9v7.3
			c0,1.2-0.3,2.2-1,2.9c-0.7,0.7-1.8,1.1-3.2,1.1s-2.5-0.4-3.2-1.1c-0.7-0.7-1-1.7-1-2.9V73.3z M962.5,73.3c0-1.6-0.8-2.4-2.4-2.4
			s-2.4,0.8-2.4,2.4v7.2c0,1.6,0.8,2.4,2.4,2.4s2.4-0.8,2.4-2.4V73.3z"/>
		<path class="st3" d="M976.7,65.6h1.8v18.7h-1.8v-0.9c-0.8,0.6-1.8,0.9-2.9,0.9c-1.2,0-2-0.3-2.7-1c-0.6-0.6-0.9-1.6-0.9-2.8v-7.3
			c0-1.2,0.4-2.2,1.1-2.9c0.7-0.7,1.7-1,2.9-1h2.4V65.6z M976.7,71.2h-2.1c-1.6,0-2.5,0.7-2.5,2.2v7.1c0,1.5,0.7,2.2,2.1,2.2
			c1,0,1.9-0.3,2.5-0.9V71.2z"/>
		<path class="st3" d="M984.7,80.5v-7.2c0-1.2,0.4-2.2,1.1-3c0.7-0.7,1.8-1.1,3.2-1.1c1.4,0,2.5,0.4,3.2,1.1c0.7,0.7,1,1.7,1,3v4.5
			h-6.6v2.6c0,0.8,0.2,1.4,0.7,1.7c0.5,0.4,1.2,0.6,2.3,0.6s2.1-0.2,3.2-0.5V84c-0.9,0.3-1.9,0.4-3.1,0.4
			C986.3,84.4,984.7,83.1,984.7,80.5z M986.5,76.3h4.8v-3c0-1.6-0.8-2.4-2.4-2.4c-1.6,0-2.4,0.8-2.4,2.4V76.3z"/>
		<path class="st3" d="M1007.9,67.8c-0.8,0-1.1-0.4-1.1-1.2c0-0.8,0.4-1.2,1.1-1.2s1.1,0.4,1.1,1.2
			C1009,67.4,1008.6,67.8,1007.9,67.8z M1006.9,69.6h1.8v14.7h-1.8V69.6z"/>
		<path class="st3" d="M1017,70.2c1.2-0.5,2.2-0.7,3.2-0.7s1.8,0.3,2.4,0.9c0.6,0.6,0.9,1.4,0.9,2.5v11.4h-1.8V73.1
			c0-1.3-0.6-1.9-1.9-1.9c-0.8,0-1.7,0.2-2.7,0.7v12.5h-1.8V69.5h1.8V70.2z"/>
		<path class="st3" d="M1031.6,66.8v2.7h3.3v1.6h-3.3V81c0,0.6,0.1,1,0.4,1.3s0.7,0.4,1.4,0.4c0.6,0,1.2-0.1,1.8-0.3v1.7
			c-0.7,0.2-1.3,0.3-2,0.3c-2.3,0-3.5-1.1-3.5-3.3v-10h-1.6v-1.6h1.7l0.5-2.7H1031.6z"/>
		<path class="st3" d="M1040,80.5v-7.2c0-1.2,0.4-2.2,1.1-3c0.7-0.7,1.8-1.1,3.2-1.1c1.4,0,2.5,0.4,3.2,1.1c0.7,0.7,1,1.7,1,3v4.5
			h-6.6v2.6c0,0.8,0.2,1.4,0.7,1.7c0.5,0.4,1.2,0.6,2.3,0.6s2.1-0.2,3.2-0.5V84c-0.9,0.3-1.9,0.4-3.1,0.4
			C1041.6,84.4,1040,83.1,1040,80.5z M1041.8,76.3h4.8v-3c0-1.6-0.8-2.4-2.4-2.4c-1.6,0-2.4,0.8-2.4,2.4V76.3z"/>
		<path class="st3" d="M1059.2,69.4h0.6v1.8h-0.9c-0.6,0-1.2,0.2-1.7,0.5c-0.2,0.1-0.5,0.3-1,0.7v11.9h-1.8V69.5h1.8v1.1
			c0.1,0,0.2-0.1,0.4-0.3s0.3-0.2,0.4-0.3c0,0,0.2-0.1,0.3-0.2c0.2-0.1,0.3-0.2,0.4-0.2c0.1,0,0.2-0.1,0.4-0.1
			C1058.4,69.5,1058.8,69.4,1059.2,69.4z"/>
		<path class="st3" d="M1065.2,68.6c0-1.1,0.3-2,0.9-2.6c0.6-0.6,1.5-0.9,2.7-0.9c0.4,0,0.8,0,1.2,0.1v1.6c-0.3-0.1-0.6-0.1-1-0.1
			c-1.2,0-1.9,0.7-1.9,2v0.9h2.8v1.6h-2.8v13.2h-1.8V71.1h-1.5v-1.6h1.5V68.6z"/>
		<path class="st3" d="M1077.8,69.4c2.9,0,4.4,1.3,4.4,3.8v11.2h-1.8v-1.1c-0.9,0.8-1.9,1.2-3.2,1.2c-2.4,0-3.6-1.2-3.6-3.6V80
			c0-1.8,1-3,3.1-3.6l3.6-1v-2.3c0-0.7-0.2-1.2-0.6-1.6c-0.4-0.3-1.1-0.5-2.3-0.5s-2.2,0.2-3.2,0.5v-1.7
			C1075.3,69.5,1076.5,69.4,1077.8,69.4z M1075.4,80.1v0.8c0,0.7,0.2,1.2,0.5,1.5c0.3,0.3,1,0.5,1.9,0.5c0.9,0,1.8-0.3,2.6-1V77
			l-3,0.8c-0.8,0.2-1.3,0.5-1.6,0.8C1075.6,79,1075.4,79.5,1075.4,80.1z"/>
		<path class="st3" d="M1088.3,73.1c0-2.5,1.5-3.7,4.4-3.7c1.1,0,2,0.1,2.8,0.4v1.7c-0.8-0.2-1.7-0.3-2.7-0.3s-1.6,0.2-2,0.5
			c-0.4,0.3-0.6,0.9-0.6,1.6v7.5c0,0.7,0.2,1.3,0.6,1.6c0.4,0.3,1.1,0.5,2.1,0.5s1.9-0.1,2.7-0.4v1.7c-0.9,0.2-1.9,0.4-2.8,0.4
			c-2.9,0-4.4-1.2-4.4-3.7V73.1z"/>
		<path class="st3" d="M1100.7,80.5v-7.2c0-1.2,0.4-2.2,1.1-3c0.7-0.7,1.8-1.1,3.2-1.1c1.4,0,2.5,0.4,3.2,1.1c0.7,0.7,1,1.7,1,3v4.5
			h-6.6v2.6c0,0.8,0.2,1.4,0.7,1.7c0.5,0.4,1.2,0.6,2.3,0.6s2.1-0.2,3.2-0.5V84c-0.9,0.3-1.9,0.4-3.1,0.4
			C1102.4,84.4,1100.7,83.1,1100.7,80.5z M1102.6,76.3h4.8v-3c0-1.6-0.8-2.4-2.4-2.4c-1.6,0-2.4,0.8-2.4,2.4V76.3z"/>
		<path class="st3" d="M1123.5,68.6c0-1.1,0.3-2,0.9-2.6c0.6-0.6,1.5-0.9,2.7-0.9c0.4,0,0.8,0,1.2,0.1v1.6c-0.3-0.1-0.6-0.1-1-0.1
			c-1.2,0-1.9,0.7-1.9,2v0.9h2.8v1.6h-2.8v13.2h-1.8V71.1h-1.5v-1.6h1.5V68.6z"/>
		<path class="st3" d="M1137.7,69.4h0.6v1.8h-0.9c-0.6,0-1.2,0.2-1.7,0.5c-0.2,0.1-0.5,0.3-1,0.7v11.9h-1.8V69.5h1.8v1.1
			c0.1,0,0.2-0.1,0.4-0.3s0.3-0.2,0.4-0.3c0,0,0.2-0.1,0.3-0.2c0.2-0.1,0.3-0.2,0.4-0.2c0.1,0,0.2-0.1,0.4-0.1
			C1136.9,69.5,1137.3,69.4,1137.7,69.4z"/>
		<path class="st3" d="M1146.3,69.4c2.9,0,4.4,1.3,4.4,3.8v11.2h-1.8v-1.1c-0.9,0.8-1.9,1.2-3.2,1.2c-2.4,0-3.6-1.2-3.6-3.6V80
			c0-1.8,1-3,3.1-3.6l3.6-1v-2.3c0-0.7-0.2-1.2-0.6-1.6c-0.4-0.3-1.1-0.5-2.3-0.5s-2.2,0.2-3.2,0.5v-1.7
			C1143.9,69.5,1145,69.4,1146.3,69.4z M1144,80.1v0.8c0,0.7,0.2,1.2,0.5,1.5c0.3,0.3,1,0.5,1.9,0.5c0.9,0,1.8-0.3,2.6-1V77l-3,0.8
			c-0.8,0.2-1.3,0.5-1.6,0.8C1144.1,79,1144,79.5,1144,80.1z"/>
		<path class="st3" d="M1164.6,70.5c1.2-0.7,2.4-1.1,3.6-1.1s2.1,0.3,2.7,0.9c0.6,0.6,0.9,1.4,0.9,2.5v11.4h-1.9V73.1
			c0-1.3-0.6-1.9-1.9-1.9c-0.9,0-1.9,0.3-2.8,0.9c0.1,0.3,0.1,0.6,0.1,1v11.2h-1.8V73.1c0-1.3-0.6-1.9-1.9-1.9
			c-0.8,0-1.7,0.2-2.7,0.7v12.5h-1.8V69.5h1.8v0.7c1.2-0.5,2.2-0.7,3-0.7C1163,69.5,1163.9,69.8,1164.6,70.5z"/>
		<path class="st3" d="M1177.8,80.5v-7.2c0-1.2,0.4-2.2,1.1-3c0.7-0.7,1.8-1.1,3.2-1.1c1.4,0,2.5,0.4,3.2,1.1c0.7,0.7,1,1.7,1,3v4.5
			h-6.6v2.6c0,0.8,0.2,1.4,0.7,1.7c0.5,0.4,1.2,0.6,2.3,0.6s2.1-0.2,3.2-0.5V84c-0.9,0.3-1.9,0.4-3.1,0.4
			C1179.5,84.4,1177.8,83.1,1177.8,80.5z M1179.6,76.3h4.8v-3c0-1.6-0.8-2.4-2.4-2.4c-1.6,0-2.4,0.8-2.4,2.4V76.3z"/>
		<path class="st3" d="M1203.7,69.5h1.9l-2.7,14.8h-2.5c-1.4-7.8-2.1-11.9-2.1-12.3c-0.1,1-0.3,2.7-0.8,4.9l-1.4,7.4h-2.5l-2.7-14.8
			h1.9l2.1,12.9l2.3-12.9h2.1l2.3,12.9L1203.7,69.5z"/>
		<path class="st3" d="M1210.4,73.3c0-1.2,0.3-2.2,1-2.9c0.7-0.7,1.8-1.1,3.2-1.1c1.4,0,2.5,0.4,3.2,1.1c0.7,0.7,1,1.7,1,2.9v7.3
			c0,1.2-0.3,2.2-1,2.9c-0.7,0.7-1.8,1.1-3.2,1.1c-1.4,0-2.5-0.4-3.2-1.1c-0.7-0.7-1-1.7-1-2.9V73.3z M1217,73.3
			c0-1.6-0.8-2.4-2.4-2.4s-2.4,0.8-2.4,2.4v7.2c0,1.6,0.8,2.4,2.4,2.4s2.4-0.8,2.4-2.4V73.3z"/>
		<path class="st3" d="M1229.8,69.4h0.6v1.8h-0.9c-0.6,0-1.2,0.2-1.7,0.5c-0.2,0.1-0.5,0.3-1,0.7v11.9h-1.8V69.5h1.8v1.1
			c0.1,0,0.2-0.1,0.4-0.3s0.3-0.2,0.4-0.3c0,0,0.2-0.1,0.3-0.2c0.2-0.1,0.3-0.2,0.4-0.2c0.1,0,0.2-0.1,0.4-0.1
			C1229,69.5,1229.4,69.4,1229.8,69.4z"/>
		<path class="st3" d="M1235.3,65.6h1.8v18.7h-1.8V65.6z M1241.3,69.5h2l-3.2,7.1l3.5,7.7h-2.1l-3.4-7.7L1241.3,69.5z"/>
	</g>
	<text transform="matrix(1 0 0 1 603.0929 67.4539)" class="st7 st8 st9 st10">®</text>
	<text transform="matrix(1 0 0 1 155.6168 66.4542)" class="st7 st8 st9 st10">®</text>
	<g class="st11">
		<path class="st3" d="M1092.5,97.8c2.9,0,4.4,1.3,4.4,3.8v11.2h-1.8v-1.1c-0.9,0.8-1.9,1.2-3.2,1.2c-2.4,0-3.6-1.2-3.6-3.6v-0.8
			c0-1.8,1-3,3.1-3.6l3.6-1v-2.3c0-0.7-0.2-1.2-0.6-1.6c-0.4-0.3-1.1-0.5-2.3-0.5s-2.2,0.2-3.2,0.5v-1.7
			C1090.1,98,1091.2,97.8,1092.5,97.8z M1090.2,108.6v0.8c0,0.7,0.2,1.2,0.5,1.5c0.3,0.3,1,0.5,1.9,0.5c0.9,0,1.8-0.3,2.6-1v-4.9
			l-3,0.8c-0.8,0.2-1.3,0.5-1.6,0.8C1090.3,107.5,1090.2,107.9,1090.2,108.6z"/>
		<path class="st3" d="M1103.3,94h1.8v18.7h-1.8V94z"/>
		<path class="st3" d="M1113.3,98.7c1.2-0.5,2.2-0.8,3.2-0.8s1.8,0.3,2.4,0.9c0.6,0.6,0.9,1.4,0.9,2.5v7.5c0,1.2-0.4,2.2-1.1,2.8
			c-0.7,0.7-1.6,1-2.8,1h-2.6v3.9h-1.8V98h1.8V98.7z M1118,101.5c0-1.3-0.6-1.9-1.9-1.9c-0.8,0-1.7,0.2-2.7,0.7v10.8h2.2
			c1.6,0,2.4-0.8,2.4-2.3V101.5z"/>
		<path class="st3" d="M1126,94h1.8v4.5c1-0.4,2-0.6,3-0.6c1,0,1.8,0.3,2.5,0.9c0.6,0.6,0.9,1.4,0.9,2.5v11.4h-1.8v-11.2
			c0-1.3-0.6-1.9-1.9-1.9c-0.9,0-1.8,0.2-2.7,0.6v12.5h-1.8V94z"/>
		<path class="st3" d="M1143.8,97.8c2.9,0,4.4,1.3,4.4,3.8v11.2h-1.8v-1.1c-0.9,0.8-1.9,1.2-3.2,1.2c-2.4,0-3.6-1.2-3.6-3.6v-0.8
			c0-1.8,1-3,3.1-3.6l3.6-1v-2.3c0-0.7-0.2-1.2-0.6-1.6c-0.4-0.3-1.1-0.5-2.3-0.5s-2.2,0.2-3.2,0.5v-1.7
			C1141.4,98,1142.5,97.8,1143.8,97.8z M1141.5,108.6v0.8c0,0.7,0.2,1.2,0.5,1.5c0.3,0.3,1,0.5,1.9,0.5c0.9,0,1.8-0.3,2.6-1v-4.9
			l-3,0.8c-0.8,0.2-1.3,0.5-1.6,0.8C1141.6,107.5,1141.5,107.9,1141.5,108.6z"/>
		<path class="st3" d="M1167.1,97.9h0.6v1.8h-0.9c-0.6,0-1.2,0.2-1.7,0.5c-0.2,0.1-0.5,0.3-1,0.7v11.9h-1.8V98h1.8v1.1
			c0.1,0,0.2-0.1,0.4-0.3s0.3-0.2,0.4-0.3c0,0,0.2-0.1,0.3-0.2c0.2-0.1,0.3-0.2,0.4-0.2c0.1,0,0.2-0.1,0.4-0.1
			C1166.3,97.9,1166.6,97.9,1167.1,97.9z"/>
		<path class="st3" d="M1172.3,109v-7.2c0-1.2,0.4-2.2,1.1-3c0.7-0.7,1.8-1.1,3.2-1.1c1.4,0,2.5,0.4,3.2,1.1c0.7,0.7,1,1.7,1,3v4.5
			h-6.6v2.6c0,0.8,0.2,1.4,0.7,1.7c0.5,0.4,1.2,0.6,2.3,0.6s2.1-0.2,3.2-0.5v1.7c-0.9,0.3-1.9,0.4-3.1,0.4
			C1173.9,112.9,1172.3,111.6,1172.3,109z M1174.1,104.8h4.8v-3c0-1.6-0.8-2.4-2.4-2.4c-1.6,0-2.4,0.8-2.4,2.4V104.8z"/>
		<path class="st3" d="M1186.7,94h1.8v18.7h-1.8V94z"/>
		<path class="st3" d="M1194.8,109v-7.2c0-1.2,0.4-2.2,1.1-3c0.7-0.7,1.8-1.1,3.2-1.1c1.4,0,2.5,0.4,3.2,1.1c0.7,0.7,1,1.7,1,3v4.5
			h-6.6v2.6c0,0.8,0.2,1.4,0.7,1.7c0.5,0.4,1.2,0.6,2.3,0.6s2.1-0.2,3.2-0.5v1.7c-0.9,0.3-1.9,0.4-3.1,0.4
			C1196.4,112.9,1194.8,111.6,1194.8,109z M1196.6,104.8h4.8v-3c0-1.6-0.8-2.4-2.4-2.4c-1.6,0-2.4,0.8-2.4,2.4V104.8z"/>
		<path class="st3" d="M1212.4,97.8c2.9,0,4.4,1.3,4.4,3.8v11.2h-1.8v-1.1c-0.9,0.8-1.9,1.2-3.2,1.2c-2.4,0-3.6-1.2-3.6-3.6v-0.8
			c0-1.8,1-3,3.1-3.6l3.6-1v-2.3c0-0.7-0.2-1.2-0.6-1.6c-0.4-0.3-1.1-0.5-2.3-0.5s-2.2,0.2-3.2,0.5v-1.7
			C1209.9,98,1211.1,97.8,1212.4,97.8z M1210.1,108.6v0.8c0,0.7,0.2,1.2,0.5,1.5c0.3,0.3,1,0.5,1.9,0.5c0.9,0,1.8-0.3,2.6-1v-4.9
			l-3,0.8c-0.8,0.2-1.3,0.5-1.6,0.8C1210.2,107.5,1210.1,107.9,1210.1,108.6z"/>
		<path class="st3" d="M1222.1,101.5c0-1.2,0.3-2.1,1-2.7c0.7-0.6,1.8-0.9,3.4-0.9c1,0,1.9,0.1,2.9,0.4v1.7
			c-0.9-0.3-1.8-0.5-2.9-0.5s-1.7,0.2-2.1,0.5c-0.4,0.3-0.5,0.8-0.5,1.5v0.7c0,0.6,0.1,1,0.3,1.3s0.6,0.6,1.2,0.8l2.2,1.1
			c1.6,0.8,2.3,1.8,2.3,3.2v0.7c0,2.4-1.6,3.6-4.7,3.6c-1.2,0-2.2-0.1-3.1-0.4v-1.7c0.9,0.3,1.9,0.5,3,0.5s1.9-0.2,2.3-0.5
			c0.4-0.3,0.7-0.8,0.7-1.5v-0.5c0-0.5-0.1-0.9-0.3-1.1s-0.7-0.6-1.3-0.9l-2.2-1.1c-1.5-0.7-2.2-1.8-2.2-3.3V101.5z"/>
		<path class="st3" d="M1235.1,109v-7.2c0-1.2,0.4-2.2,1.1-3c0.7-0.7,1.8-1.1,3.2-1.1c1.4,0,2.5,0.4,3.2,1.1c0.7,0.7,1,1.7,1,3v4.5
			h-6.6v2.6c0,0.8,0.2,1.4,0.7,1.7c0.5,0.4,1.2,0.6,2.3,0.6s2.1-0.2,3.2-0.5v1.7c-0.9,0.3-1.9,0.4-3.1,0.4
			C1236.7,112.9,1235.1,111.6,1235.1,109z M1236.9,104.8h4.8v-3c0-1.6-0.8-2.4-2.4-2.4c-1.6,0-2.4,0.8-2.4,2.4V104.8z"/>
	</g>
</g>
</svg>
