<?xml version="1.0" encoding="utf-8"?>
<!-- Generator: Adobe Illustrator 22.0.1, SVG Export Plug-In . SVG Version: 6.00 Build 0)  -->
<svg version="1.1" id="Layer_1" xmlns="http://www.w3.org/2000/svg" xmlns:xlink="http://www.w3.org/1999/xlink" x="0px" y="0px"
	 viewBox="0 0 185 182" style="enable-background:new 0 0 185 182;" xml:space="preserve">
<style type="text/css">
	.st0{fill:#28233D;}
	.st1{fill:none;stroke:#FFFFFF;stroke-width:4;stroke-miterlimit:10;}
	.st2{opacity:0.8;fill:none;stroke:#FFFFFF;stroke-miterlimit:10;enable-background:new    ;}
	.st3{fill:#FFFFFF;}
</style>
<g id="Layer_2_1_">
	<rect class="st0" width="185" height="182"/>
</g>
<g id="Layer_1_1_">
	<g>
		<g>
			<circle class="st1" cx="92.3" cy="92.7" r="61.3"/>
			<polyline class="st2" points="35.1,114.7 48.6,110 48.6,135.6 76,133.7 92.3,154 111.1,133.9 137,134.6 137,107.8 116.3,115.6 
				137,71.9 148.8,68.8 			"/>
			<polyline class="st2" points="50.5,73 68.8,115.6 48.6,110 32.1,91 50.5,73 36.4,67.5 			"/>
			<polygon class="st2" points="50.5,49.1 74.6,49.1 68.8,67.5 50.5,73 			"/>
			<polyline class="st2" points="68.8,36 74.6,49.1 92.3,31.4 111.1,49.1 116.3,36.2 			"/>
			<polyline class="st2" points="111.1,49.1 68.8,67.5 48.6,110 			"/>
			<polyline class="st2" points="117.3,148.6 111.1,133.9 68.8,115.6 76,133.7 67.3,148.6 			"/>
			<polyline class="st2" points="111.1,133.9 116.3,115.6 76,133.7 			"/>
			<polyline class="st2" points="137,71.9 118,67.5 137,107.8 153.6,92.7 137,71.9 135,48.6 111.1,49.1 118,67.5 74.6,49.1 			"/>
			<line class="st2" x1="150" y1="113.4" x2="137" y2="107.8"/>
		</g>
		<g>
			<path class="st3" d="M106.1,99.1h7.5V123c0,2.7-0.1,4.9-0.3,6.5c-0.2,1.7-0.7,3.7-1.4,6l-1.5,5.1h-7.8l1.5-5.1
				c1.4-4.8,2.1-9,2.1-12.5L106.1,99.1L106.1,99.1z"/>
			<path class="st3" d="M116.8,107.1c0-2.6,0.9-4.7,2.7-6.1c1.8-1.4,4.3-2.1,7.7-2.1c3.3,0,5.8,0.3,7.5,1v7.1
				c-2-0.9-4.3-1.3-6.9-1.3c-1.3,0-2.2,0.2-2.7,0.6s-0.7,1-0.7,1.8v0.7c0,0.9,0.2,1.6,0.5,2s1,0.9,2,1.5l5.6,3.2
				c2.7,1.5,4,3.7,4,6.7v3.1c0,2.7-1,4.7-3,6.1c-2,1.4-4.7,2.1-8.3,2.1s-6.3-0.4-8.1-1.1v-7.2c2.2,1,4.8,1.4,7.6,1.4
				c2.8,0,4.2-0.8,4.2-2.4v-0.7c0-0.8-0.2-1.3-0.5-1.7c-0.3-0.4-0.9-0.8-1.8-1.3l-5.3-2.9c-3.2-1.8-4.8-4.3-4.8-7.5v-3H116.8z"/>
		</g>
	</g>
</g>
</svg>
